<svg width="1461" height="1488" viewBox="0 0 1461 1488" fill="none" xmlns="http://www.w3.org/2000/svg">
<path d="M363.237 880.94C363.096 880.854 362.964 880.767 362.823 880.681C303.94 843.962 263.165 795.846 244.891 741.535C226.692 687.443 230.644 626.777 256.323 566.096C283.821 501.109 350.252 405.935 454.234 333.713C575.789 249.285 722.24 214.138 877.749 232.075C990.605 245.089 1097.68 302.201 1138.14 370.948C1158.95 406.313 1161.98 442.426 1147.15 478.297C1107.34 574.545 979.785 570.531 886.654 567.602C862.184 566.835 841.046 566.165 824.417 567.407C817.835 567.895 811.348 568.355 804.965 568.806C694.987 576.589 615.524 582.212 573.543 712.085C573.431 712.439 561.743 749.838 540.242 790.435C520.343 828.023 487.705 876.143 445.264 891.942C418.639 901.854 391.039 898.148 363.237 880.94ZM258.983 567.224C233.588 627.247 229.664 687.206 247.632 740.616C265.692 794.286 306.052 841.872 364.357 878.238C364.488 878.317 364.625 878.407 364.756 878.486C391.766 895.201 418.505 898.822 444.247 889.243C485.829 873.764 517.997 826.259 537.662 789.132C559.044 748.765 570.669 711.591 570.786 711.218C613.368 579.461 693.647 573.786 804.755 565.921C811.133 565.467 817.616 565.012 824.194 564.521C840.978 563.27 862.181 563.934 886.735 564.709C979.029 567.615 1105.43 571.592 1144.47 477.197C1158.94 442.211 1155.97 406.961 1135.64 372.419C1095.62 304.405 989.427 247.871 877.412 234.949C722.615 217.096 576.85 252.068 455.878 336.09C352.405 407.958 286.32 502.608 258.983 567.224Z" fill="#BF1ADD"/>
<path d="M348.823 912.213C345.942 910.432 343.073 908.488 340.213 906.386C285.25 865.952 248.885 815.708 235.053 761.083C221.28 706.68 229.718 647.499 259.462 589.935C291.305 528.293 363.594 439.985 470.972 376.998C596.5 303.372 742.719 279.932 893.826 309.216C1003.49 330.47 1104.17 394.516 1138.67 464.961C1156.41 501.202 1156.67 536.844 1139.42 570.896C1093.15 662.269 968.397 648.744 877.312 638.861C853.382 636.265 832.71 634.025 816.31 633.986C809.819 633.971 803.43 633.938 797.139 633.894C688.748 633.255 610.427 632.791 559.507 756.94C559.376 757.28 545.096 793.059 520.967 831.249C498.627 866.6 463.011 911.328 420.206 923.622C396.178 930.528 372.204 926.686 348.823 912.213ZM1038.93 368.563C996.819 342.501 946.115 322.296 893.282 312.054C742.874 282.904 597.346 306.226 472.439 379.488C365.593 442.16 293.69 529.972 262.028 591.257C232.619 648.186 224.257 706.664 237.858 760.367C251.525 814.335 287.511 864.021 341.926 904.048C367.259 922.685 393.324 928.332 419.398 920.841C499.792 897.75 556.263 757.265 556.827 755.85C608.493 629.877 687.631 630.35 797.16 631.002C803.449 631.038 809.834 631.075 816.322 631.096C832.869 631.128 853.608 633.378 877.622 635.983C967.875 645.771 1091.48 659.176 1136.85 569.584C1153.66 536.384 1153.41 501.607 1136.08 466.221C1118.52 430.38 1083.56 396.181 1038.93 368.563Z" fill="#BF1ADD"/>
<path d="M341.074 927.843C336.986 925.31 332.927 922.445 328.901 919.231C275.894 876.947 241.739 825.636 230.133 770.853C218.573 716.298 229.253 657.856 261.027 601.85C295.048 541.882 370.264 457.005 479.342 398.638C606.852 330.41 752.961 312.831 901.866 347.788C1009.94 373.163 1107.42 440.672 1138.94 511.971C1155.15 548.654 1154.01 584.058 1135.56 617.2C1086.06 706.139 962.706 687.849 872.636 674.492C848.97 670.983 828.534 667.954 812.261 667.279C805.816 667.012 799.472 666.727 793.225 666.445C685.625 661.587 607.879 658.074 552.488 779.369C552.341 779.699 536.772 814.674 511.323 851.655C487.764 885.894 450.655 928.922 407.67 939.461C384.903 945.046 362.558 941.136 341.074 927.843ZM1030.67 404.007C992.536 380.406 947.874 361.564 901.21 350.605C752.998 315.809 607.59 333.299 480.711 401.192C372.178 459.268 297.367 543.664 263.545 603.28C232.125 658.656 221.552 716.396 232.958 770.256C244.428 824.372 278.225 875.105 330.701 916.97C355.133 936.466 380.791 943.08 406.967 936.658C487.686 916.856 549.23 779.566 549.84 778.183C606.048 655.099 684.613 658.652 793.347 663.558C799.589 663.837 805.929 664.126 812.374 664.394C828.806 665.077 849.309 668.117 873.051 671.635C962.288 684.868 1084.5 702.989 1133.03 615.798C1151.02 583.491 1152.11 548.949 1136.28 513.141C1118.69 473.31 1080.18 434.646 1030.67 404.007Z" fill="#BF1ADD"/>
<path d="M324.679 959.141C318.4 955.255 312.272 950.511 306.291 944.913C257.205 898.915 227.469 845.483 220.31 790.39C213.176 735.524 228.347 678.57 264.18 625.691C302.554 569.067 383.628 491.056 496.095 441.934C627.569 384.51 773.446 378.637 917.949 424.94C1022.82 458.54 1113.91 532.994 1139.46 605.994C1152.6 643.545 1148.69 678.474 1127.83 709.798C1071.86 793.855 951.306 766.045 863.288 745.739C840.164 740.409 820.195 735.797 804.147 733.846C797.794 733.075 791.547 732.29 785.389 731.517C679.365 718.231 602.761 708.63 538.427 824.206C538.258 824.526 520.109 857.885 492.023 892.452C466.023 924.453 425.935 964.081 382.59 971.119C362.281 974.435 342.875 970.407 324.679 959.141ZM1013.5 472.225C984.064 454.004 951.317 438.668 917.077 427.693C773.251 381.605 628.08 387.445 497.261 444.582C385.356 493.463 304.723 571.026 266.578 627.32C231.146 679.609 216.134 735.869 223.173 790.022C230.251 844.444 259.675 897.277 308.265 942.807C330.888 964.003 355.734 972.574 382.135 968.284C463.525 955.06 535.189 824.147 535.901 822.829C601.19 705.534 678.605 715.237 785.751 728.66C791.904 729.43 798.151 730.214 804.496 730.987C820.695 732.957 840.731 737.579 863.937 742.931C951.134 763.045 1070.56 790.596 1125.42 708.204C1145.76 677.675 1149.56 643.606 1136.73 606.954C1119.79 558.515 1073.53 509.379 1013.5 472.225Z" fill="#BF1ADD"/>
<path d="M316.091 974.835C308.806 970.325 301.77 964.631 294.993 957.751C247.865 909.898 220.341 855.408 215.404 800.162C210.487 745.139 227.902 688.932 265.769 637.616C306.316 582.662 390.314 508.087 504.481 463.585C637.939 411.567 783.698 411.542 926.002 463.528C1029.29 501.255 1117.17 579.171 1139.73 653.012C1151.34 691 1146.03 725.687 1123.97 756.1C1064.77 837.712 945.629 805.144 858.63 781.367C835.779 775.123 816.038 769.723 800.113 767.141C793.805 766.118 787.6 765.086 781.489 764.07C676.253 746.57 600.217 733.93 531.415 846.647C531.23 846.957 511.788 879.509 482.386 912.87C433.076 968.824 394.088 984.049 370.065 986.965C350.936 989.292 332.867 985.218 316.091 974.835ZM1004.84 505.088C980.06 489.755 953.115 476.503 925.01 466.24C783.375 414.502 638.32 414.515 505.532 466.278C391.938 510.555 308.398 584.701 268.093 639.326C230.652 690.071 213.429 745.592 218.285 799.904C223.159 854.476 250.403 908.354 297.054 955.723C318.771 977.774 343.214 987.316 369.718 984.095C412.322 978.915 453.309 941.483 480.186 910.986C509.415 877.823 528.746 845.469 528.938 845.149C598.767 730.748 675.603 743.527 781.964 761.212C788.07 762.225 794.271 763.261 800.575 764.281C816.652 766.89 836.457 772.306 859.392 778.579C945.573 802.138 1063.6 834.404 1121.63 754.406C1143.14 724.764 1148.29 690.931 1136.96 653.853C1120.77 600.852 1070.42 545.678 1004.84 505.088Z" fill="#BF1ADD"/>
<path d="M298.263 1006.36C289.068 1000.67 280.436 993.018 272.396 983.427C229.189 931.869 206.088 875.252 205.595 819.7C205.105 764.375 227.003 709.658 268.932 661.463C313.828 609.859 403.684 542.149 521.241 506.892C658.663 465.679 804.186 477.365 942.083 540.693C1042.18 586.658 1123.65 671.509 1140.24 747.041C1148.78 785.902 1140.7 820.104 1116.23 848.699C1050.57 925.428 934.233 883.335 849.286 852.609C826.971 844.54 807.699 837.566 792.003 833.703C785.79 832.171 779.678 830.644 773.656 829.137C669.993 803.214 595.099 784.486 517.353 891.497C517.143 891.789 495.118 922.729 463.088 953.675C433.432 982.322 388.872 1016.85 344.995 1018.63C328.173 1019.31 312.541 1015.2 298.263 1006.36ZM988.106 568.683C972.997 559.33 957.192 550.811 940.884 543.317C803.634 480.288 658.812 468.647 522.077 509.656C405.107 544.742 315.74 612.061 271.108 663.36C229.652 711.01 207.994 765.068 208.48 819.678C208.966 874.55 231.831 930.534 274.607 981.575C294.514 1005.33 318.16 1016.83 344.872 1015.74C427.25 1012.39 514.135 891.033 515.002 889.813C593.907 781.205 669.599 800.137 774.354 826.334C780.371 827.838 786.479 829.369 792.691 830.892C808.533 834.793 827.873 841.786 850.268 849.89C934.422 880.332 1049.67 922.025 1114.03 846.819C1137.89 818.95 1145.75 785.59 1137.42 747.664C1123.71 685.227 1064.99 616.269 988.106 568.683Z" fill="#BF1ADD"/>
<path d="M289.065 1022.2C278.942 1015.93 269.599 1007.28 261.097 996.266C219.849 942.852 198.96 885.177 200.689 829.472C202.412 773.996 226.558 720.021 270.517 673.393C317.587 623.459 410.371 559.189 529.62 528.553C669.02 492.742 814.431 510.28 950.122 579.279C1048.6 629.362 1126.89 717.671 1140.5 794.054C1147.5 833.348 1138.03 867.312 1112.35 894.992C1043.47 969.274 928.536 922.428 844.621 888.224C822.574 879.239 803.535 871.48 787.955 866.974C781.793 865.193 775.721 863.411 769.752 861.665C666.877 831.527 592.549 809.752 510.327 913.915C510.108 914.2 486.788 944.332 453.437 974.069C422.567 1001.6 376.518 1034.42 332.465 1034.45C316.755 1034.46 302.245 1030.36 289.065 1022.2ZM980.322 599.591C970.106 593.265 959.58 587.331 948.811 581.86C813.753 513.18 669.044 495.718 530.334 531.35C411.684 561.83 319.407 625.737 272.615 675.376C229.147 721.487 205.272 774.802 203.575 829.563C201.866 884.593 222.548 941.626 263.38 994.501C282.386 1019.11 305.628 1031.58 332.451 1031.56C415.168 1031.51 507.12 913.331 508.04 912.141C591.478 806.438 666.595 828.441 770.557 858.901C776.526 860.647 782.588 862.422 788.75 864.203C804.475 868.746 823.585 876.532 845.707 885.549C928.846 919.436 1042.7 965.844 1110.24 893.033C1135.26 866.054 1144.49 832.923 1137.65 794.571C1125.67 727.34 1062.87 650.675 980.322 599.591Z" fill="#BF1ADD"/>
<path d="M279.717 1038.11C268.67 1031.27 258.678 1021.59 249.797 1009.1C210.508 953.836 191.832 895.101 195.787 839.248C199.724 783.62 226.113 730.392 272.101 685.323C321.345 637.059 417.057 576.228 537.998 550.213C679.384 519.804 824.672 543.201 958.162 617.873C1055.06 672.074 1130.13 763.851 1140.75 841.075C1146.21 880.802 1135.36 914.519 1108.48 941.289C1036.37 1013.12 922.843 961.516 839.956 923.84C818.181 913.941 799.37 905.395 783.908 900.253C777.787 898.217 771.767 896.195 765.84 894.202C663.753 859.85 589.988 835.033 503.294 936.342C502.329 937.501 404.404 1053.57 319.932 1050.28C305.32 1049.71 291.875 1045.63 279.717 1038.11ZM973.094 630.013C967.724 626.689 962.272 623.478 956.753 620.391C823.884 546.067 679.294 522.773 538.607 553.032C418.269 578.917 323.08 639.404 274.125 687.38C228.652 731.949 202.562 784.53 198.673 839.443C194.767 894.621 213.263 952.709 252.156 1007.42C270.261 1032.89 293.1 1046.33 320.034 1047.38C403.088 1050.62 500.108 935.624 501.076 934.461C589.051 831.657 663.593 856.739 766.756 891.45C772.678 893.44 778.694 895.467 784.816 897.503C800.424 902.69 819.298 911.265 841.152 921.199C923.275 958.53 1035.75 1009.65 1106.45 939.23C1132.65 913.134 1143.22 880.239 1137.89 841.46C1127.98 769.467 1061.24 684.568 973.094 630.013Z" fill="#BF1ADD"/>
<path d="M260.63 1070.12C247.719 1062.13 236.55 1050.32 227.219 1034.76C191.857 975.793 177.6 914.938 185.999 858.779C194.362 802.848 225.236 751.118 275.283 709.176C328.872 664.266 430.438 610.298 554.767 593.528C700.11 573.924 845.147 609.022 974.244 695.047C1067.92 757.477 1136.6 856.185 1141.26 935.093C1143.65 975.687 1130.02 1008.91 1100.74 1033.86C1022.17 1100.79 911.464 1039.67 830.629 995.049C809.39 983.325 791.046 973.196 775.815 966.782C769.785 964.242 763.862 961.72 758.029 959.24C657.505 916.458 584.876 885.549 489.226 981.158C488.155 982.256 380.006 1091.89 294.87 1081.91C282.377 1080.45 270.944 1076.51 260.63 1070.12ZM953.028 684.86C829.543 608.437 692.471 577.872 555.149 596.393C431.43 613.084 330.415 666.743 277.137 711.396C227.642 752.873 197.117 803.991 188.859 859.21C180.563 914.702 194.684 974.891 229.702 1033.29C246.009 1060.47 268.046 1075.87 295.2 1079.05C378.93 1088.86 486.098 980.235 487.169 979.137C584.213 882.137 657.593 913.367 759.163 956.592C764.996 959.072 770.919 961.594 776.944 964.13C792.312 970.605 810.717 980.763 832.028 992.532C912.129 1036.75 1021.82 1097.31 1098.87 1031.67C1127.42 1007.35 1140.71 974.911 1138.37 935.272C1133.77 857.207 1065.62 759.42 972.644 697.458C966.144 693.129 959.603 688.928 953.028 684.86Z" fill="#BF1ADD"/>
<path d="M250.92 1086.24C237.055 1077.66 225.351 1064.74 215.933 1047.6C182.525 986.775 170.488 924.86 181.106 868.553C191.683 812.471 224.8 761.488 276.869 721.114C332.632 677.875 437.118 627.347 563.148 615.197C710.468 600.996 855.384 641.947 982.276 733.642C1074.35 800.181 1139.83 902.354 1141.5 982.112C1142.36 1023.13 1127.34 1056.12 1096.86 1080.15C1015.08 1144.64 905.771 1078.76 825.964 1030.66C804.993 1018.02 786.887 1007.11 771.769 1000.06C765.784 997.27 759.903 994.501 754.116 991.768C654.372 944.773 582.309 910.817 482.184 1003.58C481.063 1004.64 367.8 1111.05 282.335 1097.73C270.879 1095.94 260.393 1092.11 250.92 1086.24ZM939.496 708.464C823.417 636.623 694.369 605.45 563.422 618.075C438.011 630.167 334.083 680.406 278.638 723.401C227.13 763.337 194.388 813.713 183.944 869.088C173.448 924.734 185.388 985.98 218.462 1046.21C233.857 1074.25 255.493 1090.62 282.771 1094.87C366.839 1107.98 479.075 1002.53 480.199 1001.47C581.775 907.371 654.576 941.677 755.338 989.154C761.124 991.877 767.001 994.652 772.981 997.439C788.232 1004.56 806.401 1015.5 827.44 1028.19C906.525 1075.85 1014.84 1141.13 1095.06 1077.88C1124.79 1054.44 1139.44 1022.24 1138.6 982.167C1136.95 903.265 1071.97 802.031 980.577 735.982C967.087 726.239 953.376 717.056 939.496 708.464Z" fill="#BF1ADD"/>
</svg>
