<svg width="1461" height="1488" viewBox="0 0 1461 1488" fill="none" xmlns="http://www.w3.org/2000/svg">
<path d="M363.237 880.576C363.096 880.49 362.964 880.403 362.823 880.317C303.94 843.597 263.165 795.481 244.891 741.17C226.692 687.078 230.644 626.413 256.323 565.731C283.821 500.744 350.252 405.57 454.234 333.348C575.789 248.92 722.24 213.774 877.749 231.71C990.605 244.724 1097.68 301.837 1138.14 370.583C1158.95 405.948 1161.98 442.061 1147.15 477.932C1107.34 574.18 979.785 570.167 886.654 567.237C862.184 566.47 841.046 565.8 824.417 567.042C817.835 567.531 811.348 567.99 804.965 568.441C694.987 576.224 615.524 581.847 573.543 711.72C573.431 712.075 561.743 749.473 540.242 790.07C520.343 827.658 487.705 875.778 445.264 891.577C418.639 901.49 391.039 897.783 363.237 880.576ZM258.983 566.859C233.588 626.882 229.664 686.841 247.632 740.251C265.692 793.921 306.052 841.507 364.357 877.873C364.488 877.952 364.625 878.043 364.756 878.121C391.766 894.836 418.505 898.457 444.247 888.878C485.829 873.4 517.997 825.894 537.662 788.768C559.044 748.4 570.669 711.226 570.786 710.853C613.368 579.096 693.647 573.421 804.755 565.557C811.133 565.102 817.616 564.648 824.194 564.156C840.978 562.905 862.181 563.569 886.735 564.344C979.029 567.25 1105.43 571.228 1144.47 476.833C1158.94 441.847 1155.97 406.596 1135.64 372.055C1095.62 304.041 989.427 247.506 877.412 234.585C722.615 216.731 576.85 251.703 455.878 335.726C352.405 407.593 286.32 502.243 258.983 566.859Z" fill="#BF1ADD"/>
<path d="M356.219 896.22C354.645 895.249 353.081 894.233 351.514 893.17C294.589 854.595 256.016 805.414 239.968 750.945C223.982 696.702 230.181 636.778 257.884 577.652C287.561 514.339 356.918 422.596 462.601 354.994C586.142 275.966 732.474 246.674 885.781 270.284C997.044 287.422 1100.92 347.995 1138.4 417.595C1157.67 453.396 1159.32 489.28 1143.28 524.237C1100.24 618.048 974.083 609.278 881.975 602.873C857.773 601.189 836.872 599.737 820.36 600.337C813.823 600.573 807.384 600.789 801.042 600.993C691.856 604.557 612.964 607.136 566.515 734.152C566.393 734.499 553.412 771.09 530.594 810.481C509.473 846.953 475.346 893.377 432.725 907.421C407.42 915.763 381.703 911.991 356.219 896.22ZM1046.84 331.849C1001.04 303.501 944.255 282.209 885.349 273.135C732.74 249.636 587.1 278.78 464.159 357.429C358.998 424.701 290.006 515.934 260.508 578.881C233.104 637.352 226.959 696.573 242.744 750.134C258.607 803.952 296.779 852.585 353.14 890.785C379.444 908.611 405.856 913.242 431.824 904.686C473.572 890.93 507.212 845.101 528.077 809.081C550.77 769.915 563.678 733.542 563.806 733.176C610.927 604.313 690.635 601.704 800.954 598.106C807.291 597.899 813.727 597.688 820.258 597.448C836.927 596.84 857.898 598.297 882.184 599.989C973.458 606.336 1098.45 615.026 1140.66 523.029C1156.3 488.936 1154.68 453.925 1135.86 418.96C1118.56 386.838 1086.9 356.643 1046.84 331.849Z" fill="#BF1ADD"/>
<path d="M348.823 911.848C345.942 910.068 343.073 908.124 340.213 906.021C285.25 865.587 248.885 815.344 235.053 760.719C221.28 706.315 229.718 647.135 259.462 589.57C291.305 527.928 363.594 439.62 470.972 376.634C596.5 303.008 742.719 279.567 893.826 308.851C1003.49 330.105 1104.17 394.151 1138.67 464.596C1156.41 500.838 1156.67 536.479 1139.42 570.532C1093.15 661.904 968.397 648.379 877.312 638.497C853.382 635.9 832.71 633.66 816.31 633.621C809.819 633.606 803.43 633.574 797.139 633.529C688.748 632.891 610.427 632.426 559.507 756.575C559.376 756.915 545.096 792.695 520.967 830.884C498.627 866.235 463.011 910.963 420.206 923.257C396.178 930.163 372.204 926.321 348.823 911.848ZM1038.93 368.198C996.819 342.137 946.115 321.931 893.282 311.689C742.874 282.54 597.346 305.861 472.439 379.123C365.593 441.795 293.69 529.607 262.028 590.892C232.619 647.821 224.257 706.3 237.858 760.003C251.525 813.97 287.511 863.657 341.926 903.684C367.259 922.32 393.324 927.968 419.398 920.476C499.792 897.385 556.263 756.901 556.827 755.485C608.493 629.512 687.631 629.986 797.16 630.637C803.449 630.673 809.834 630.71 816.322 630.731C832.869 630.763 853.608 633.013 877.622 635.618C967.875 645.406 1091.48 658.811 1136.85 569.219C1153.66 536.019 1153.41 501.242 1136.08 465.857C1118.52 430.015 1083.56 395.816 1038.93 368.198Z" fill="#BF1ADD"/>
<path d="M341.074 927.478C336.986 924.945 332.927 922.081 328.901 918.866C275.894 876.582 241.739 825.271 230.133 770.488C218.573 715.934 229.253 657.491 261.027 601.485C295.048 541.518 370.264 456.641 479.342 398.274C606.852 330.045 752.961 312.466 901.866 347.423C1009.94 372.798 1107.42 440.307 1138.94 511.606C1155.15 548.289 1154.01 583.693 1135.56 616.836C1086.06 705.774 962.706 687.484 872.636 674.127C848.97 670.618 828.534 667.589 812.261 666.914C805.816 666.647 799.472 666.363 793.225 666.08C685.625 661.222 607.879 657.709 552.488 779.004C552.341 779.334 536.772 814.31 511.323 851.291C487.764 885.529 450.655 928.557 407.67 939.097C384.903 944.681 362.558 940.771 341.074 927.478ZM1030.67 403.643C992.536 380.041 947.874 361.199 901.21 350.241C752.998 315.444 607.59 332.934 480.711 400.827C372.178 458.904 297.367 543.299 263.545 602.916C232.125 658.292 221.552 716.031 232.958 769.891C244.428 824.007 278.225 874.74 330.701 916.605C355.133 936.102 380.791 942.716 406.967 936.293C487.686 916.491 549.23 779.202 549.84 777.818C606.048 654.734 684.613 658.287 793.347 663.193C799.589 663.472 805.929 663.762 812.374 664.029C828.806 664.713 849.309 667.752 873.051 671.271C962.288 684.503 1084.5 702.624 1133.03 615.434C1151.02 583.127 1152.11 548.585 1136.28 512.777C1118.69 472.945 1080.18 434.282 1030.67 403.643Z" fill="#BF1ADD"/>
<path d="M333.017 943.119C327.802 939.891 322.663 936.087 317.599 931.709C266.554 887.565 234.607 835.201 225.226 780.26C215.879 725.546 228.808 667.854 262.61 613.407C298.805 555.109 376.953 473.667 487.723 419.921C617.216 357.099 763.207 345.368 909.917 386.002C1016.39 415.489 1110.68 486.476 1139.2 558.621C1153.88 595.737 1151.35 630.903 1131.7 663.14C1078.96 749.64 957.011 726.586 867.961 709.757C844.568 705.335 824.368 701.517 808.204 700.209C801.804 699.689 795.507 699.153 789.307 698.627C682.495 689.555 605.324 683.002 545.463 801.43C545.303 801.758 528.443 835.921 501.679 871.696C476.898 904.819 438.298 946.143 395.134 954.936C373.609 959.321 352.78 955.344 333.017 943.119ZM1022.15 438.183C988.248 417.2 949.585 399.991 909.137 388.783C763.122 348.341 617.832 360.012 488.981 422.523C378.764 475.999 301.046 556.978 265.066 614.934C231.637 668.766 218.852 725.766 228.075 779.777C237.345 834.046 268.954 885.825 319.494 929.524C343.028 949.867 368.276 957.469 394.562 952.107C475.628 935.594 542.219 801.494 542.881 800.142C603.626 679.957 681.615 686.58 789.556 695.75C795.751 696.272 802.049 696.808 808.448 697.328C824.764 698.654 845.031 702.484 868.505 706.919C956.722 723.592 1077.54 746.424 1129.24 661.635C1148.39 630.213 1150.84 595.914 1136.52 559.684C1119.1 515.643 1076.82 472.012 1022.15 438.183Z" fill="#BF1ADD"/>
<path d="M324.679 958.776C318.4 954.89 312.272 950.146 306.291 944.548C257.205 898.55 227.469 845.118 220.31 790.025C213.176 735.159 228.347 678.205 264.18 625.326C302.554 568.702 383.628 490.691 496.095 441.569C627.569 384.145 773.446 378.272 917.949 424.575C1022.82 458.175 1113.91 532.63 1139.46 605.629C1152.6 643.181 1148.69 678.109 1127.83 709.433C1071.86 793.491 951.306 765.68 863.288 745.374C840.164 740.044 820.195 735.432 804.147 733.481C797.794 732.71 791.547 731.925 785.389 731.152C679.365 717.866 602.761 708.265 538.427 823.841C538.258 824.161 520.109 857.52 492.023 892.087C466.023 924.089 425.935 963.716 382.59 970.754C362.281 974.07 342.875 970.042 324.679 958.776ZM1013.5 471.861C984.064 453.639 951.317 438.303 917.077 427.328C773.251 381.241 628.08 387.08 497.261 444.217C385.356 493.098 304.723 570.661 266.578 626.955C231.146 679.245 216.134 735.504 223.173 789.657C230.251 844.079 259.675 896.912 308.265 942.442C330.888 963.638 355.734 972.21 382.135 967.919C463.525 954.695 535.189 823.782 535.901 822.464C601.19 705.169 678.605 714.872 785.751 728.296C791.904 729.065 798.151 729.85 804.496 730.622C820.695 732.592 840.731 737.215 863.937 742.566C951.134 762.68 1070.56 790.231 1125.42 707.839C1145.76 677.31 1149.56 643.242 1136.73 606.589C1119.79 558.151 1073.53 509.015 1013.5 471.861Z" fill="#BF1ADD"/>
<path d="M316.091 974.47C308.806 969.96 301.77 964.266 294.993 957.386C247.865 909.534 220.341 855.043 215.404 799.797C210.487 744.775 227.902 688.568 265.769 637.251C306.316 582.297 390.314 507.722 504.481 463.22C637.939 411.202 783.698 411.177 926.002 463.163C1029.29 500.89 1117.17 578.807 1139.73 652.647C1151.34 690.635 1146.03 725.322 1123.97 755.736C1064.77 837.347 945.629 804.779 858.63 781.002C835.779 774.758 816.038 769.358 800.113 766.776C793.805 765.753 787.6 764.722 781.489 763.705C676.253 746.205 600.217 733.565 531.415 846.283C531.23 846.592 511.788 879.144 482.386 912.505C433.076 968.459 394.088 983.684 370.065 986.601C350.936 988.928 332.867 984.853 316.091 974.47ZM1004.84 504.723C980.06 489.391 953.115 476.138 925.01 465.875C783.375 414.137 638.32 414.15 505.532 465.913C391.938 510.19 308.398 584.336 268.093 638.962C230.652 689.707 213.429 745.227 218.285 799.54C223.159 854.111 250.403 907.989 297.054 955.358C318.771 977.41 343.214 986.951 369.718 983.73C412.322 978.551 453.309 941.118 480.186 910.621C509.415 877.458 528.746 845.104 528.938 844.784C598.767 730.384 675.603 743.162 781.964 760.847C788.07 761.86 794.271 762.897 800.575 763.916C816.652 766.526 836.457 771.941 859.392 778.214C945.573 801.773 1063.6 834.04 1121.63 754.041C1143.14 724.399 1148.29 690.566 1136.96 653.488C1120.77 600.488 1070.42 545.313 1004.84 504.723Z" fill="#BF1ADD"/>
<path d="M307.277 990.206C299.026 985.1 291.158 978.435 283.695 970.225C238.525 920.517 213.213 864.968 210.497 809.56C207.793 754.386 227.452 698.926 267.347 649.168C310.068 595.885 396.998 524.745 512.857 484.863C648.296 438.243 793.937 444.081 934.043 501.735C1035.71 543.578 1120.41 624.964 1139.98 699.652C1150.06 738.076 1143.36 772.521 1120.1 802.029C1057.66 881.197 939.928 843.869 853.953 816.615C831.369 809.455 811.865 803.274 796.052 800.045C789.789 798.77 783.63 797.487 777.567 796.227C673.116 774.517 597.653 758.829 524.379 868.693C524.185 868.996 503.448 900.74 472.731 932.896C444.294 962.664 401.223 998.887 357.526 1002.42C339.564 1003.89 322.751 999.783 307.277 990.206ZM269.606 650.982C230.155 700.182 210.716 754.969 213.386 809.428C216.068 864.152 241.12 919.081 285.832 968.288C306.646 991.191 330.688 1001.71 357.297 999.554C439.355 992.914 521.15 868.371 521.968 867.114C596.333 755.613 672.599 771.465 778.157 793.407C784.221 794.666 790.375 795.946 796.629 797.223C812.59 800.475 832.164 806.684 854.826 813.87C939.992 840.874 1056.63 877.851 1117.82 800.249C1140.5 771.492 1147.01 737.897 1137.18 700.393C1117.82 626.526 1033.83 545.935 932.937 504.417C793.499 447.033 648.557 441.224 513.79 487.607C398.525 527.285 312.069 598.016 269.606 650.982Z" fill="#BF1ADD"/>
<path d="M298.263 1005.99C289.068 1000.3 280.436 992.653 272.396 983.063C229.189 931.504 206.088 874.887 205.595 819.336C205.105 764.01 227.003 709.294 268.932 661.098C313.828 609.494 403.684 541.784 521.241 506.527C658.663 465.314 804.186 477 942.083 540.329C1042.18 586.293 1123.65 671.144 1140.24 746.677C1148.78 785.537 1140.7 819.74 1116.23 848.334C1050.57 925.064 934.233 882.97 849.286 852.244C826.971 844.175 807.699 837.202 792.003 833.338C785.79 831.806 779.678 830.279 773.656 828.773C669.993 802.849 595.099 784.122 517.353 891.133C517.143 891.424 495.118 922.364 463.088 953.31C433.432 981.957 388.872 1016.48 344.995 1018.27C328.173 1018.94 312.541 1014.83 298.263 1005.99ZM988.106 568.318C972.997 558.965 957.192 550.446 940.884 542.953C803.634 479.923 658.812 468.282 522.077 509.291C405.107 544.377 315.74 611.696 271.108 662.995C229.652 710.646 207.994 764.703 208.48 819.313C208.966 874.186 231.831 930.169 274.607 981.21C294.514 1004.96 318.16 1016.46 344.872 1015.38C427.25 1012.03 514.135 890.669 515.002 889.448C593.907 780.841 669.599 799.773 774.354 825.97C780.371 827.473 786.479 829.004 792.691 830.528C808.533 834.429 827.873 841.422 850.268 849.525C934.422 879.968 1049.67 921.661 1114.03 846.454C1137.89 818.585 1145.75 785.225 1137.42 747.299C1123.71 684.862 1064.99 615.904 988.106 568.318Z" fill="#BF1ADD"/>
<path d="M289.065 1021.83C278.942 1015.57 269.599 1006.92 261.097 995.901C219.849 942.487 198.96 884.812 200.689 829.107C202.412 773.631 226.558 719.656 270.517 673.028C317.587 623.094 410.371 558.824 529.62 528.188C669.02 492.377 814.431 509.916 950.122 578.914C1048.6 628.997 1126.89 717.307 1140.5 793.689C1147.5 832.983 1138.03 866.947 1112.35 894.628C1043.47 968.909 928.536 922.064 844.621 887.86C822.574 878.874 803.535 871.116 787.955 866.609C781.793 864.829 775.721 863.046 769.752 861.3C666.877 831.162 592.549 809.387 510.327 913.55C510.108 913.835 486.788 943.967 453.437 973.704C422.567 1001.23 376.518 1034.06 332.465 1034.09C316.755 1034.1 302.245 1029.99 289.065 1021.83ZM980.322 599.226C970.106 592.9 959.58 586.966 948.811 581.495C813.753 512.816 669.044 495.353 530.334 530.985C411.684 561.465 319.407 625.373 272.615 675.012C229.147 721.122 205.272 774.437 203.575 829.198C201.866 884.228 222.548 941.261 263.38 994.137C282.386 1018.75 305.628 1031.22 332.451 1031.2C415.168 1031.14 507.12 912.966 508.04 911.776C591.478 806.073 666.595 828.076 770.557 858.536C776.526 860.282 782.588 862.058 788.75 863.838C804.475 868.382 823.585 876.168 845.707 885.184C928.846 919.072 1042.7 965.479 1110.24 892.669C1135.26 865.689 1144.49 832.558 1137.65 794.206C1125.67 726.976 1062.87 650.31 980.322 599.226Z" fill="#BF1ADD"/>
<path d="M279.717 1037.74C268.67 1030.9 258.678 1021.22 249.797 1008.74C210.508 953.471 191.832 894.737 195.787 838.883C199.724 783.255 226.113 730.027 272.101 684.958C321.345 636.694 417.057 575.864 537.998 549.849C679.384 519.439 824.672 542.836 958.162 617.508C1055.06 671.709 1130.13 763.486 1140.75 840.711C1146.21 880.437 1135.36 914.155 1108.48 940.925C1036.37 1012.76 922.843 961.152 839.956 923.475C818.181 913.576 799.37 905.03 783.908 899.888C777.787 897.853 771.767 895.831 765.84 893.837C663.753 859.485 589.988 834.668 503.294 935.977C502.329 937.136 404.404 1053.21 319.932 1049.92C305.32 1049.34 291.875 1045.26 279.717 1037.74ZM973.094 629.648C967.724 626.324 962.272 623.113 956.753 620.027C823.884 545.702 679.294 522.408 538.607 552.667C418.269 578.552 323.08 639.039 274.125 687.015C228.652 731.584 202.562 784.166 198.673 839.079C194.767 894.257 213.263 952.344 252.156 1007.06C270.261 1032.53 293.1 1045.97 320.034 1047.02C403.088 1050.25 500.108 935.26 501.076 934.096C589.051 831.292 663.593 856.374 766.756 891.085C772.678 893.075 778.694 895.102 784.816 897.138C800.424 902.325 819.298 910.901 841.152 920.834C923.275 958.166 1035.75 1009.29 1106.45 938.865C1132.65 912.769 1143.22 879.874 1137.89 841.095C1127.98 769.102 1061.24 684.203 973.094 629.648Z" fill="#BF1ADD"/>
<path d="M270.235 1053.71C258.265 1046.3 247.663 1035.57 238.514 1021.57C201.189 964.446 184.724 904.653 190.897 848.643C197.047 792.864 225.68 740.383 273.689 696.883C325.103 650.294 423.743 592.895 546.38 571.504C689.74 546.494 834.912 575.748 966.2 656.093C966.803 656.465 967.429 656.846 968.031 657.218C1062.41 715.623 1133.41 810.147 1141 887.72C1144.93 927.877 1132.69 961.357 1104.61 987.209C1029.27 1056.6 917.149 1000.23 835.286 959.078C813.778 948.263 795.203 938.927 779.856 933.156C773.78 930.868 767.806 928.594 761.926 926.357C660.619 887.793 587.424 859.932 496.253 958.384C495.235 959.512 392.194 1072.36 307.396 1065.73C293.856 1064.67 281.447 1060.65 270.235 1053.71ZM966.513 659.681C965.906 659.305 965.303 658.934 964.692 658.563C834.015 578.588 689.538 549.472 546.877 574.354C424.846 595.64 326.746 652.715 275.627 699.028C228.141 742.049 199.835 793.896 193.76 848.965C187.659 904.3 203.968 963.443 240.925 1019.99C258.132 1046.32 280.562 1060.74 307.615 1062.85C391.003 1069.37 493.094 957.566 494.116 956.433C586.628 856.537 660.587 884.691 762.95 923.653C768.83 925.89 774.799 928.16 780.87 930.444C796.362 936.275 814.996 945.645 836.578 956.491C917.689 997.263 1028.77 1053.11 1102.64 985.077C1130.02 959.868 1141.95 927.204 1138.12 887.994C1130.62 811.276 1060.16 717.639 966.513 659.681Z" fill="#BF1ADD"/>
<path d="M260.63 1069.75C247.719 1061.77 236.55 1049.96 227.219 1034.4C191.857 975.429 177.6 914.573 185.999 858.414C194.362 802.483 225.236 750.754 275.283 708.811C328.872 663.902 430.438 609.933 554.767 593.163C700.11 573.559 845.147 608.657 974.244 694.682C1067.92 757.112 1136.6 855.82 1141.26 934.728C1143.65 975.322 1130.02 1008.55 1100.74 1033.49C1022.17 1100.43 911.464 1039.31 830.629 994.684C809.39 982.96 791.046 972.831 775.815 966.417C769.785 963.877 763.862 961.355 758.029 958.875C657.505 916.093 584.876 885.184 489.226 980.794C488.155 981.891 380.006 1091.52 294.87 1081.54C282.377 1080.09 270.944 1076.14 260.63 1069.75ZM953.028 684.495C829.543 608.072 692.471 577.507 555.149 596.028C431.43 612.719 330.415 666.378 277.137 711.032C227.642 752.508 197.117 803.626 188.859 858.845C180.563 914.338 194.684 974.526 229.702 1032.92C246.009 1060.11 268.046 1075.5 295.2 1078.68C378.93 1088.5 486.098 979.87 487.169 978.772C584.213 881.772 657.593 913.002 759.163 956.227C764.996 958.707 770.919 961.229 776.944 963.765C792.312 970.24 810.717 980.398 832.028 992.167C912.129 1036.39 1021.82 1096.95 1098.87 1031.31C1127.42 1006.98 1140.71 974.546 1138.37 934.907C1133.77 856.843 1065.62 759.055 972.644 697.093C966.144 692.764 959.603 688.563 953.028 684.495Z" fill="#BF1ADD"/>
<path d="M250.92 1085.87C237.055 1077.29 225.351 1064.38 215.933 1047.23C182.525 986.411 170.488 924.495 181.106 868.188C191.683 812.106 224.8 761.123 276.869 720.749C332.632 677.51 437.118 626.982 563.148 614.832C710.468 600.631 855.384 641.582 982.276 733.278C1074.35 799.816 1139.83 901.989 1141.5 981.747C1142.36 1022.77 1127.34 1055.76 1096.86 1079.79C1015.08 1144.28 905.771 1078.4 825.964 1030.3C804.993 1017.66 786.887 1006.75 771.769 999.696C765.784 996.905 759.903 994.136 754.116 991.404C654.372 944.409 582.309 910.453 482.184 1003.21C481.063 1004.28 367.8 1110.68 282.335 1097.36C270.879 1095.58 260.393 1091.74 250.92 1085.87ZM939.496 708.099C823.417 636.258 694.369 605.085 563.422 617.71C438.011 629.802 334.083 680.041 278.638 723.036C227.13 762.973 194.388 813.348 183.944 868.723C173.448 924.369 185.388 985.616 218.462 1045.84C233.857 1073.88 255.493 1090.26 282.771 1094.51C366.839 1107.61 479.075 1002.17 480.199 1001.1C581.775 907.006 654.576 941.312 755.338 988.789C761.124 991.513 767.001 994.287 772.981 997.074C788.232 1004.19 806.401 1015.14 827.44 1027.82C906.525 1075.49 1014.84 1140.76 1095.06 1077.51C1124.79 1054.07 1139.44 1021.87 1138.6 981.802C1136.95 902.9 1071.97 801.667 980.577 735.618C967.087 725.874 953.376 716.692 939.496 708.099Z" fill="#BF1ADD"/>
</svg>
