<svg width="1461" height="1489" viewBox="0 0 1461 1489" fill="none" xmlns="http://www.w3.org/2000/svg">
<path d="M348.823 912.578C345.942 910.797 343.073 908.853 340.213 906.751C285.25 866.317 248.885 816.073 235.053 761.448C221.28 707.045 229.718 647.864 259.462 590.299C291.305 528.658 363.594 440.35 470.972 377.363C596.5 303.737 742.719 280.297 893.826 309.58C1003.49 330.834 1104.17 394.88 1138.67 465.325C1156.41 501.567 1156.67 537.209 1139.42 571.261C1093.15 662.633 968.397 649.108 877.312 639.226C853.382 636.629 832.71 634.39 816.31 634.351C809.819 634.335 803.43 634.303 797.139 634.259C688.748 633.62 610.427 633.156 559.507 757.304C559.376 757.644 545.096 793.424 520.967 831.614C498.627 866.965 463.011 911.693 420.206 923.987C396.178 930.892 372.204 927.05 348.823 912.578ZM1038.93 368.927C996.819 342.866 946.115 322.661 893.282 312.419C742.874 283.269 597.346 306.591 472.439 379.852C365.593 442.524 293.69 530.337 262.028 591.621C232.619 648.55 224.257 707.029 237.858 760.732C251.525 814.699 287.511 864.386 341.926 904.413C367.259 923.049 393.324 928.697 419.398 921.205C499.792 898.115 556.263 757.63 556.827 756.215C608.493 630.242 687.631 630.715 797.16 631.367C803.449 631.403 809.834 631.44 816.322 631.46C832.869 631.492 853.608 633.743 877.622 636.347C967.875 646.135 1091.48 659.541 1136.85 569.949C1153.66 536.749 1153.41 501.972 1136.08 466.586C1118.52 430.745 1083.56 396.545 1038.93 368.927Z" fill="#BF1ADD"/>
<path d="M341.074 928.207C336.986 925.675 332.927 922.81 328.901 919.595C275.894 877.312 241.739 826.001 230.133 771.218C218.573 716.663 229.253 658.221 261.027 602.215C295.048 542.247 370.264 457.37 479.342 399.003C606.852 330.775 752.961 313.196 901.866 348.152C1009.94 373.527 1107.42 441.037 1138.94 512.336C1155.15 549.018 1154.01 584.422 1135.56 617.565C1086.06 706.503 962.706 688.214 872.636 674.857C848.97 671.348 828.534 668.319 812.261 667.644C805.816 667.377 799.472 667.092 793.225 666.81C685.625 661.952 607.879 658.439 552.488 779.734C552.341 780.064 536.772 815.039 511.323 852.02C487.764 886.259 450.655 929.287 407.67 939.826C384.903 945.411 362.558 941.501 341.074 928.207ZM1030.67 404.372C992.536 380.771 947.874 361.929 901.21 350.97C752.998 316.174 607.59 333.664 480.711 401.557C372.178 459.633 297.367 544.029 263.545 603.645C232.125 659.021 221.552 716.761 232.958 770.621C244.428 824.737 278.225 875.47 330.701 917.335C355.133 936.831 380.791 943.445 406.967 937.023C487.686 917.221 549.23 779.931 549.84 778.548C606.048 655.464 684.613 659.017 793.347 663.923C799.589 664.202 805.929 664.491 812.374 664.759C828.806 665.442 849.309 668.482 873.051 672C962.288 685.233 1084.5 703.353 1133.03 616.163C1151.02 583.856 1152.11 549.314 1136.28 513.506C1118.69 473.674 1080.18 435.011 1030.67 404.372Z" fill="#BF1ADD"/>
<path d="M324.679 959.506C318.4 955.62 312.272 950.876 306.291 945.278C257.205 899.28 227.469 845.848 220.31 790.755C213.176 735.889 228.347 678.935 264.18 626.056C302.554 569.432 383.628 491.421 496.095 442.299C627.569 384.875 773.446 379.001 917.949 425.305C1022.82 458.905 1113.91 533.359 1139.46 606.358C1152.6 643.91 1148.69 678.838 1127.83 710.163C1071.86 794.22 951.306 766.41 863.288 746.104C840.164 740.774 820.195 736.162 804.147 734.211C797.794 733.439 791.547 732.655 785.389 731.882C679.365 718.596 602.761 708.995 538.427 824.571C538.258 824.891 520.109 858.25 492.023 892.817C466.023 924.818 425.935 964.446 382.59 971.484C362.281 974.8 342.875 970.772 324.679 959.506ZM1013.5 472.59C984.064 454.369 951.317 439.033 917.077 428.058C773.251 381.97 628.08 387.81 497.261 444.947C385.356 493.828 304.723 571.391 266.578 627.684C231.146 679.974 216.134 736.234 223.173 790.387C230.251 844.808 259.675 897.642 308.265 943.172C330.888 964.367 355.734 972.939 382.135 968.649C463.525 955.425 535.189 824.511 535.901 823.194C601.19 705.899 678.605 715.602 785.751 729.025C791.904 729.795 798.151 730.579 804.496 731.352C820.695 733.322 840.731 737.944 863.937 743.296C951.134 763.41 1070.56 790.961 1125.42 708.569C1145.76 678.04 1149.56 643.971 1136.73 607.319C1119.79 558.88 1073.53 509.744 1013.5 472.59Z" fill="#BF1ADD"/>
<path d="M316.091 975.2C308.806 970.69 301.77 964.996 294.993 958.116C247.865 910.263 220.341 855.772 215.404 800.526C210.487 745.504 227.902 689.297 265.769 637.98C306.316 583.027 390.314 508.452 504.481 463.949C637.939 411.932 783.698 411.907 926.002 463.892C1029.29 501.62 1117.17 579.536 1139.73 653.377C1151.34 691.365 1146.03 726.052 1123.97 756.465C1064.77 838.076 945.629 805.509 858.63 781.731C835.779 775.488 816.038 770.088 800.113 767.506C793.805 766.482 787.6 765.451 781.489 764.435C676.253 746.935 600.217 734.295 531.415 847.012C531.23 847.322 511.788 879.873 482.386 913.235C433.076 969.189 394.088 984.414 370.065 987.33C350.936 989.657 332.867 985.583 316.091 975.2ZM1004.84 505.453C980.06 490.12 953.115 476.868 925.01 466.604C783.375 414.866 638.32 414.879 505.532 466.643C391.938 510.919 308.398 585.066 268.093 639.691C230.652 690.436 213.429 745.957 218.285 800.269C223.159 854.841 250.403 908.719 297.054 956.087C318.771 978.139 343.214 987.681 369.718 984.459C412.322 979.28 453.309 941.847 480.186 911.351C509.415 878.188 528.746 845.834 528.938 845.514C598.767 731.113 675.603 743.892 781.964 761.577C788.07 762.59 794.271 763.626 800.575 764.646C816.652 767.255 836.457 772.67 859.392 778.944C945.573 802.503 1063.6 834.769 1121.63 754.77C1143.14 725.129 1148.29 691.296 1136.96 654.217C1120.77 601.217 1070.42 546.042 1004.84 505.453Z" fill="#BF1ADD"/>
<path d="M298.263 1006.72C289.068 1001.03 280.436 993.383 272.396 983.792C229.189 932.234 206.088 875.617 205.595 820.065C205.105 764.74 227.003 710.023 268.932 661.828C313.828 610.224 403.684 542.514 521.241 507.257C658.663 466.043 804.186 477.73 942.083 541.058C1042.18 587.023 1123.65 671.874 1140.24 747.406C1148.78 786.267 1140.7 820.469 1116.23 849.064C1050.57 925.793 934.233 883.7 849.286 852.974C826.971 844.905 807.699 837.931 792.003 834.067C785.79 832.536 779.678 831.009 773.656 829.502C669.993 803.579 595.099 784.851 517.353 891.862C517.143 892.154 495.118 923.094 463.088 954.04C433.432 982.687 388.872 1017.21 344.995 1018.99C328.173 1019.67 312.541 1015.56 298.263 1006.72ZM988.106 569.048C972.997 559.694 957.192 551.175 940.884 543.682C803.634 480.653 658.812 469.012 522.077 510.021C405.107 545.107 315.74 612.426 271.108 663.725C229.652 711.375 207.994 765.433 208.48 820.043C208.966 874.915 231.831 930.899 274.607 981.939C294.514 1005.69 318.16 1017.19 344.872 1016.1C427.25 1012.76 514.135 891.398 515.002 890.177C593.907 781.57 669.599 800.502 774.354 826.699C780.371 828.202 786.479 829.734 792.691 831.257C808.533 835.158 827.873 842.151 850.268 850.255C934.422 880.697 1049.67 922.39 1114.03 847.183C1137.89 819.314 1145.75 785.955 1137.42 748.029C1123.71 685.591 1064.99 616.634 988.106 569.048Z" fill="#BF1ADD"/>
<path d="M289.065 1022.56C278.942 1016.3 269.599 1007.65 261.097 996.63C219.849 943.217 198.96 885.541 200.689 829.837C202.412 774.36 226.558 720.385 270.517 673.757C317.587 623.824 410.371 559.553 529.62 528.917C669.02 493.106 814.431 510.645 950.122 579.643C1048.6 629.726 1126.89 718.036 1140.5 794.419C1147.5 833.712 1138.03 867.677 1112.35 895.357C1043.47 969.638 928.536 922.793 844.621 888.589C822.574 879.603 803.535 871.845 787.955 867.338C781.793 865.558 775.721 863.776 769.752 862.029C666.877 831.892 592.549 810.117 510.327 914.279C510.108 914.564 486.788 944.697 453.437 974.434C422.567 1001.96 376.518 1034.79 332.465 1034.82C316.755 1034.83 302.245 1030.72 289.065 1022.56ZM980.322 599.955C970.106 593.63 959.58 587.696 948.811 582.225C813.753 513.545 669.044 496.083 530.334 531.714C411.684 562.195 319.407 626.102 272.615 675.741C229.147 721.852 205.272 775.167 203.575 829.928C201.866 884.957 222.548 941.99 263.38 994.866C282.386 1019.48 305.628 1031.95 332.451 1031.93C415.168 1031.87 507.12 913.696 508.04 912.506C591.478 806.803 666.595 828.805 770.557 859.265C776.526 861.012 782.588 862.787 788.75 864.567C804.475 869.111 823.585 876.897 845.707 885.914C928.846 919.801 1042.7 966.208 1110.24 893.398C1135.26 866.419 1144.49 833.288 1137.65 794.936C1125.67 727.705 1062.87 651.039 980.322 599.955Z" fill="#BF1ADD"/>
<path d="M279.717 1038.47C268.67 1031.63 258.678 1021.95 249.797 1009.47C210.508 954.201 191.832 895.466 195.787 839.612C199.724 783.985 226.113 730.756 272.101 685.687C321.345 637.424 417.057 576.593 537.998 550.578C679.384 520.168 824.672 543.566 958.162 618.238C1055.06 672.439 1130.13 764.216 1140.75 841.44C1146.21 881.167 1135.36 914.884 1108.48 941.654C1036.37 1013.49 922.843 961.881 839.956 924.205C818.181 914.306 799.37 905.759 783.908 900.618C777.787 898.582 771.767 896.56 765.84 894.567C663.753 860.215 589.988 835.397 503.294 936.707C502.329 937.865 404.404 1053.93 319.932 1050.65C305.32 1050.07 291.875 1045.99 279.717 1038.47ZM973.094 630.378C967.724 627.053 962.272 623.843 956.753 620.756C823.884 546.432 679.294 523.137 538.607 553.397C418.269 579.282 323.08 639.769 274.125 687.745C228.652 732.314 202.562 784.895 198.673 839.808C194.767 894.986 213.263 953.074 252.156 1007.79C270.261 1033.26 293.1 1046.7 320.034 1047.75C403.088 1050.98 500.108 935.989 501.076 934.826C589.051 832.022 663.593 857.104 766.756 891.815C772.678 893.805 778.694 895.832 784.816 897.867C800.424 903.055 819.298 911.63 841.152 921.564C923.275 958.895 1035.75 1010.02 1106.45 939.595C1132.65 913.498 1143.22 880.604 1137.89 841.825C1127.98 769.832 1061.24 684.933 973.094 630.378Z" fill="#BF1ADD"/>
</svg>
